<svg xmlns="http://www.w3.org/2000/svg" width="52" height="53" viewBox="0 0 52 53">
  <g id="Group_180" data-name="Group 180" transform="translate(-0.409 0.242)">
    <ellipse id="Ellipse_47" data-name="Ellipse 47" cx="26" cy="26.5" rx="26" ry="26.5" transform="translate(0.409 -0.242)" fill="#ee8a10"/>
    <g id="Layer_2" data-name="Layer 2" transform="translate(11.557 11.541)">
      <g id="Icons">
        <g id="Analysis">
          <rect id="Rectangle_151" data-name="Rectangle 151" width="30.075" height="30.075" fill="none"/>
          <path id="Path_549" data-name="Path 549" d="M20.4,29.042H9.537a.16.16,0,0,1-.16-.165V17.9a4.251,4.251,0,0,0,1.313.361v9.323a.5.5,0,0,0,.5.5h6.145a.5.5,0,0,0,0-1H11.672V18.26a4.426,4.426,0,0,0,2.877-7.278H25.135v6.732a.5.5,0,1,0,1,0V10.491a.5.5,0,0,0-.5-.5H13.381a4.376,4.376,0,0,0-4.01-.175V7.864a.16.16,0,0,1,.16-.165h5.1v.837a.5.5,0,0,0,.5.5H21.7a.5.5,0,0,0,.5-.5V7.7h5.073a.16.16,0,0,1,.16.165V18.185a.5.5,0,1,0,1,0V7.864a1.153,1.153,0,0,0-1.148-1.148H22.178V6.531a.5.5,0,0,0-.5-.5H20.539v-.5a1.5,1.5,0,0,0-1.5-1.479H17.747a1.5,1.5,0,0,0-1.479,1.5v.5H15.121a.5.5,0,0,0-.5.5v.165H9.537A1.153,1.153,0,0,0,8.369,7.864v2.551a4.431,4.431,0,0,0,0,6.882V28.877A1.153,1.153,0,0,0,9.517,30.03H20.4a.5.5,0,0,0,0-1ZM17.747,5.073H19.06a.5.5,0,0,1,.5.5v.5H17.256v-.5a.5.5,0,0,1,.491-.5Zm-2.135,1.96H21.2v1H15.612Zm-7.88,6.827A3.449,3.449,0,1,1,11.191,17.3h0a3.454,3.454,0,0,1-3.459-3.444Z" transform="translate(-3.356 -2.02)" fill="#fff"/>
          <path id="Path_550" data-name="Path 550" d="M39.589,35.79a5.128,5.128,0,0,0-2.1.461l-.1-.17a.5.5,0,0,0-.672-.185,5.769,5.769,0,0,0-2.867,4.977.5.5,0,0,0,.5.5h.185a5.088,5.088,0,1,0,5.053-5.584ZM36.8,37.023l1.94,3.383H34.863A4.782,4.782,0,0,1,36.8,37.023Zm2.792,7.96a4.105,4.105,0,0,1-4.07-3.614h4.07a.5.5,0,0,0,.426-.737L37.98,37.123a4.105,4.105,0,1,1,1.609,7.86Z" transform="translate(-16.883 -17.85)" fill="#fff"/>
          <path id="Path_551" data-name="Path 551" d="M22.03,31.652a.5.5,0,0,0-.7,0L19.86,33.105a.5.5,0,0,0,0,.7.471.471,0,0,0,.346.145.5.5,0,0,0,.351-.145l1.1-1.1,1,1a.5.5,0,0,0,.7,0l1.89-1.895.862.862a.5.5,0,0,0,.7,0l3.078-3.033a.493.493,0,1,0-.7-.7l-2.7,2.7-.862-.862a.5.5,0,0,0-.7,0l-1.895,1.895Z" transform="translate(-9.835 -14.364)" fill="#fff"/>
          <path id="Path_552" data-name="Path 552" d="M12.276,21.472a1.3,1.3,0,0,0,1,.13l.952-.256a.316.316,0,0,1,.251.035.3.3,0,0,1,.15.2.331.331,0,0,1-.231.406l-1.429.381a.5.5,0,0,0,.13.967c.04,0,.6-.145.6-.145l.045.16a.5.5,0,0,0,.471.366.391.391,0,0,0,.13,0,.5.5,0,0,0,.346-.6l-.04-.16h0a1.313,1.313,0,1,0-.682-2.536l-.947.256a.336.336,0,0,1-.251-.03.346.346,0,0,1-.155-.2.331.331,0,0,1,.236-.4l1.424-.386a.5.5,0,0,0-.266-.967l-.471.13-.045-.16a.5.5,0,0,0-.952.256l.045.16h0a1.313,1.313,0,0,0-.316,2.406Z" transform="translate(-5.795 -9.162)" fill="#fff"/>
          <path id="Path_553" data-name="Path 553" d="M32.951,21h-5.91a.5.5,0,1,0,0,1h5.91a.5.5,0,1,0,0-1Z" transform="translate(-13.237 -10.474)" fill="#fff"/>
          <path id="Path_554" data-name="Path 554" d="M35.235,24.27H31.621a.5.5,0,1,0,0,1h3.614a.5.5,0,0,0,0-1Z" transform="translate(-15.521 -12.105)" fill="#fff"/>
        </g>
      </g>
    </g>
  </g>
</svg>
