<svg id="info-lg" xmlns="http://www.w3.org/2000/svg" width="29.922" height="106.448" viewBox="0 0 29.922 106.448">
  <g id="Group_34" data-name="Group 34">
    <path id="Path_45" data-name="Path 45" d="M48.523,42.205,21.641,45.674,19.906,50.01l5.2.867c4.336,1.084,4.336,2.168,4.336,5.42L19.906,97.055c-1.734,10.623,1.734,15.393,9.539,15.393,6.07,0,14.742-2.818,18.211-6.938l.867-4.986c-3.469,2.168-6.07,2.818-8.672,2.818s-4.336-1.951-2.6-5.854Zm.867-24.5A11.761,11.761,0,0,1,37.25,29.414,11.761,11.761,0,0,1,25.109,17.707,11.9,11.9,0,0,1,37.25,6,11.9,11.9,0,0,1,49.391,17.707Z" transform="translate(-19.468 -6)" fill="#fff"/>
  </g>
</svg>
