<svg xmlns="http://www.w3.org/2000/svg" width="81.375" height="81.375" viewBox="0 0 81.375 81.375">
  <g id="bx-grid-alt" transform="translate(-6 -6)">
    <path id="Path_368" data-name="Path 368" d="M37.646,6H10.521A4.521,4.521,0,0,0,6,10.521V37.646a4.521,4.521,0,0,0,4.521,4.521H37.646a4.521,4.521,0,0,0,4.521-4.521V10.521A4.521,4.521,0,0,0,37.646,6ZM33.125,33.125H15.042V15.042H33.125Zm22.6,9.042H82.854a4.521,4.521,0,0,0,4.521-4.521V10.521A4.521,4.521,0,0,0,82.854,6H55.729a4.521,4.521,0,0,0-4.521,4.521V37.646A4.521,4.521,0,0,0,55.729,42.167ZM60.25,15.042H78.333V33.125H60.25ZM6,82.854a4.521,4.521,0,0,0,4.521,4.521H37.646a4.521,4.521,0,0,0,4.521-4.521V55.729a4.521,4.521,0,0,0-4.521-4.521H10.521A4.521,4.521,0,0,0,6,55.729Zm9.042-22.6H33.125V78.333H15.042Zm36.167,22.6a4.521,4.521,0,0,0,4.521,4.521H82.854a4.521,4.521,0,0,0,4.521-4.521V55.729a4.521,4.521,0,0,0-4.521-4.521H55.729a4.521,4.521,0,0,0-4.521,4.521Zm9.042-22.6H78.333V78.333H60.25Z" fill="#0076ff"/>
  </g>
</svg>
