<svg xmlns="http://www.w3.org/2000/svg" width="125.996" height="125.999" viewBox="0 0 125.996 125.999">
  <g id="bx-home" transform="translate(-4 -4)">
    <path id="Path_170" data-name="Path 170" d="M10.3,73.3h6.3v44.1A12.612,12.612,0,0,0,29.2,130h75.6a12.612,12.612,0,0,0,12.6-12.6V73.3h6.3a6.3,6.3,0,0,0,4.454-10.754l-56.7-56.7a6.294,6.294,0,0,0-8.908,0l-56.7,56.7A6.3,6.3,0,0,0,10.3,73.3Zm44.1,44.1V85.9H79.6v31.5ZM67,19.209l37.8,37.8V85.9l.006,31.5H92.2V85.9A12.612,12.612,0,0,0,79.6,73.3H54.4A12.612,12.612,0,0,0,41.8,85.9v31.5H29.2V57.008Z" transform="translate(0)" fill="#081750"/>
  </g>
</svg>
