<svg xmlns="http://www.w3.org/2000/svg" width="124" height="130.889" viewBox="0 0 124 130.889">
  <g id="bx-user" transform="translate(-6 -4)">
    <path id="Path_171" data-name="Path 171" d="M68,4a34.444,34.444,0,1,0,34.444,34.444A34.444,34.444,0,0,0,68,4Zm0,55.111A20.667,20.667,0,1,1,88.667,38.444,20.667,20.667,0,0,1,68,59.111Zm62,75.778V128A48.222,48.222,0,0,0,81.778,79.778H54.222A48.222,48.222,0,0,0,6,128v6.889H19.778V128A34.444,34.444,0,0,1,54.222,93.556H81.778A34.444,34.444,0,0,1,116.222,128v6.889Z" fill="#081750"/>
  </g>
</svg>
