<svg xmlns="http://www.w3.org/2000/svg" width="51" height="53" viewBox="0 0 51 53">
  <g id="Group_181" data-name="Group 181" transform="translate(0.109 0.242)">
    <ellipse id="Ellipse_47" data-name="Ellipse 47" cx="25.5" cy="26.5" rx="25.5" ry="26.5" transform="translate(-0.109 -0.242)" fill="#ee8a10"/>
    <g id="Layer_2" transform="translate(10.987 11.541)">
      <g id="Group_183" data-name="Group 183">
        <path id="Path_544" data-name="Path 544" d="M184.406,241.9a2.529,2.529,0,0,0-1.79,4.318,2.5,2.5,0,0,0,1.79.739,2.529,2.529,0,1,0,0-5.057Zm.846,3.383a1.2,1.2,0,0,1-1.692,0,1.193,1.193,0,0,1,.846-2.039,1.193,1.193,0,0,1,.846,2.039Z" transform="translate(-174.033 -228.714)" fill="#fff"/>
        <path id="Path_545" data-name="Path 545" d="M304.506,241.9a2.529,2.529,0,0,0-1.79,4.318,2.5,2.5,0,0,0,1.79.739,2.529,2.529,0,1,0,0-5.057Zm.846,3.383a1.193,1.193,0,1,1,0-1.692A1.192,1.192,0,0,1,305.352,245.283Z" transform="translate(-283.44 -228.714)" fill="#fff"/>
        <path id="Path_546" data-name="Path 546" d="M263.568,181.1a.673.673,0,0,0-.668.668v14.548a.668.668,0,1,0,1.336,0V181.768A.673.673,0,0,0,263.568,181.1Z" transform="translate(-247.844 -173.327)" fill="#fff"/>
        <path id="Path_547" data-name="Path 547" d="M108.445,95.259a.653.653,0,0,0-.374-.187l-8.227-1.264a.637.637,0,0,0-.57.187l-5.28,5.28a.653.653,0,0,0-.187.57l1.264,8.227a.681.681,0,0,0,.187.374L109.015,122.2a2.363,2.363,0,0,0,1.683.694,2.394,2.394,0,0,0,1.683-.694l9.829-9.829a2.363,2.363,0,0,0,.694-1.683,2.394,2.394,0,0,0-.694-1.683Zm12.812,16.169-9.829,9.829a1.029,1.029,0,0,1-.739.3,1.044,1.044,0,0,1-.739-.3l-13.6-13.6-1.175-7.675,4.808-4.808,7.675,1.175,13.6,13.6a1.029,1.029,0,0,1,.3.739A1.06,1.06,0,0,1,121.257,111.428Z" transform="translate(-93.799 -93.799)" fill="#fff"/>
        <path id="Path_548" data-name="Path 548" d="M141.979,138.43a2.493,2.493,0,0,0-3.526,0,2.5,2.5,0,0,0,0,3.526,2.494,2.494,0,0,0,3.526,0A2.5,2.5,0,0,0,141.979,138.43Zm-.944,2.582a1.137,1.137,0,0,1-.819.338,1.174,1.174,0,0,1-.819-.338,1.155,1.155,0,0,1,0-1.638,1.137,1.137,0,0,1,.819-.338,1.174,1.174,0,0,1,.819.338A1.155,1.155,0,0,1,141.035,141.012Z" transform="translate(-133.814 -133.791)" fill="#fff"/>
      </g>
    </g>
  </g>
</svg>
