<svg xmlns="http://www.w3.org/2000/svg" width="86" height="86" viewBox="0 0 86 86">
  <g id="Group_86" data-name="Group 86" transform="translate(-51 -474)">
    <circle id="Ellipse_25" data-name="Ellipse 25" cx="43" cy="43" r="43" transform="translate(51 474)" fill="#0076ff"/>
    <g id="bx-phone-call" transform="translate(76.8 504.831)">
      <g id="Group_212" data-name="Group 212" transform="translate(0)">
        <path id="Path_366" data-name="Path 366" d="M29.058,38.4a3.44,3.44,0,0,0,2.459-1.015l4.661-4.661a1.72,1.72,0,0,0,0-2.425L29.3,23.416a1.72,1.72,0,0,0-2.425,0l-2.752,2.735a12.985,12.985,0,0,1-5.159-2.735,13.1,13.1,0,0,1-2.735-5.159L18.962,15.5a1.72,1.72,0,0,0,0-2.425L12.083,6.2a1.72,1.72,0,0,0-2.425,0L5.015,10.879A3.44,3.44,0,0,0,4,13.338,26.279,26.279,0,0,0,11.4,31a26.279,26.279,0,0,0,17.663,7.4ZM10.879,9.864l4.454,4.454-2.219,2.219A1.72,1.72,0,0,0,12.6,18.1a17.4,17.4,0,0,0,3.956,7.739A17.336,17.336,0,0,0,24.294,29.8a1.72,1.72,0,0,0,1.565-.464l2.219-2.27,4.454,4.454-3.44,3.44a22.839,22.839,0,0,1-15.255-6.381A22.839,22.839,0,0,1,7.44,13.3Zm24.077,9.614H38.4A15.152,15.152,0,0,0,22.918,4v3.44A11.643,11.643,0,0,1,34.957,19.478Z" transform="translate(-4 -3.996)" fill="#fff"/>
        <path id="Path_367" data-name="Path 367" d="M26,14.435c2.557,0,3.653,1.1,3.653,3.653h2.435C32.088,14.167,29.921,12,26,12Z" transform="translate(-5.24 -4.447)" fill="#fff"/>
      </g>
    </g>
  </g>
</svg>
