<svg xmlns="http://www.w3.org/2000/svg" width="86" height="86" viewBox="0 0 86 86">
  <g id="Group_85" data-name="Group 85" transform="translate(-51 -474)">
    <circle id="Ellipse_25" data-name="Ellipse 25" cx="43" cy="43" r="43" transform="translate(51 474)" fill="#0076ff"/>
    <g id="bx-user" transform="translate(76.8 499.8)">
      <path id="Path_362" data-name="Path 362" d="M23.2,4a9.314,9.314,0,0,0-9.556,9.053A9.314,9.314,0,0,0,23.2,22.105a9.314,9.314,0,0,0,9.556-9.053A9.314,9.314,0,0,0,23.2,4Zm0,14.484a5.589,5.589,0,0,1-5.733-5.432A5.589,5.589,0,0,1,23.2,7.621a5.589,5.589,0,0,1,5.733,5.432A5.589,5.589,0,0,1,23.2,18.484ZM40.4,38.4V36.589c0-7-5.989-12.674-13.378-12.674H19.378C11.989,23.916,6,29.59,6,36.589V38.4H9.822V36.589a9.314,9.314,0,0,1,9.556-9.053h7.644a9.314,9.314,0,0,1,9.556,9.053V38.4Z" transform="translate(-6 -4)" fill="#fff"/>
    </g>
  </g>
</svg>
