<svg xmlns="http://www.w3.org/2000/svg" width="52" height="53" viewBox="0 0 52 53">
  <g id="Group_182" data-name="Group 182" transform="translate(-0.328 0.242)">
    <ellipse id="Ellipse_47" data-name="Ellipse 47" cx="26" cy="26.5" rx="26" ry="26.5" transform="translate(0.328 -0.242)" fill="#ee8a10"/>
    <g id="layer1" transform="translate(8.155 14.785)">
      <path id="path12668" d="M9.054,1029.92l-.529,1.057,2.489,1.244h2.5v-1.182H11.293Z" transform="translate(0.369 -1026.894)" fill="#fff" fill-rule="evenodd"/>
      <path id="path12670" d="M15.152,1029.86a2.956,2.956,0,0,0-2.458,1.316l.012-.017-2.844,3.97a.592.592,0,0,0,.482.935h2.913a1.774,1.774,0,0,0,1.475-.789l.48-.72a.59.59,0,0,1,.492-.263h.783a.588.588,0,0,1,.325.1l9.04,6.027a.874.874,0,0,1,.217,1.267l-.034.048a.878.878,0,0,1-1.163.229L20.1,1039.1a.592.592,0,0,0-.609,1.016l4.767,2.86a2.076,2.076,0,0,0,2.719-.533l.034-.046a2.08,2.08,0,0,0-.508-2.964l-9.04-6.025a1.766,1.766,0,0,0-.983-.3H15.7a1.774,1.774,0,0,0-1.475.789l-.478.72a.59.59,0,0,1-.492.263H11.493l2.174-3.036.012-.016a1.772,1.772,0,0,1,1.475-.79h3.721a1.753,1.753,0,0,1,.487.07l3.377.965a1.777,1.777,0,0,0,1.281-.12l.771-.385a.592.592,0,1,0-.531-1.057l-.771.385a.58.58,0,0,1-.425.039l-3.377-.965a2.952,2.952,0,0,0-.813-.113Z" transform="translate(0.592 -1026.905)" fill="#fff" fill-rule="evenodd"/>
      <path id="path12672" d="M26.418,1035.95l-2.955,2.068.679.97,2.955-2.068Z" transform="translate(3.086 -1025.797)" fill="#fff" fill-rule="evenodd"/>
      <path id="path12674" d="M5.732,1035.76l-.836.836,2.364,2.364.836-.835Z" transform="translate(-0.291 -1025.832)" fill="#fff" fill-rule="evenodd"/>
      <path id="path12676" d="M10.99,1037.146a1.75,1.75,0,0,0-1.11.75l-2.343,3.555a1.759,1.759,0,0,0,.5,2.424h0l.06.039a1.767,1.767,0,0,0,2.428-.506l2.343-3.555a1.758,1.758,0,0,0-.5-2.424l-.063-.041a1.75,1.75,0,0,0-1.318-.245Zm.672,1.235.06.039a.549.549,0,0,1,.162.785l-2.343,3.557a.562.562,0,0,1-.794.164l-.06-.039a.552.552,0,0,1-.162-.787l2.343-3.557a.562.562,0,0,1,.794-.164Z" transform="translate(0.137 -1025.587)" fill="#fff"/>
      <path id="path12678" d="M12.015,1039.1a1.772,1.772,0,0,0-1.122.762l-1.618,2.472a1.773,1.773,0,0,0,2.966,1.941l1.618-2.472a1.77,1.77,0,0,0-1.844-2.7Zm.686,1.237a.579.579,0,0,1,.171.819l-1.618,2.472a.592.592,0,1,1-.99-.648l1.618-2.472a.579.579,0,0,1,.82-.171Z" transform="translate(0.453 -1025.232)" fill="#fff"/>
      <path id="path12680" d="M13.256,1040.656a1.764,1.764,0,0,0-1.117.766l-1.053,1.634a1.773,1.773,0,1,0,2.978,1.925l1.053-1.634a1.783,1.783,0,0,0-.526-2.451A1.765,1.765,0,0,0,13.256,1040.656Zm.69,1.232a.581.581,0,0,1,.178.82l-1.055,1.632a.574.574,0,0,1-.815.175.58.58,0,0,1-.175-.819l1.053-1.632A.575.575,0,0,1,13.946,1041.889Z" transform="translate(0.784 -1024.948)" fill="#fff"/>
      <path id="path12682" d="M8.416,1037.136a1.765,1.765,0,0,0-1.117.767l-1.053,1.634a1.773,1.773,0,0,0,2.978,1.925l1.053-1.632a1.786,1.786,0,0,0-.526-2.454A1.766,1.766,0,0,0,8.416,1037.136Zm.692,1.233a.58.58,0,0,1,.175.819l-1.053,1.632a.574.574,0,0,1-.815.175.58.58,0,0,1-.176-.82l1.053-1.632A.574.574,0,0,1,9.109,1038.369Z" transform="translate(-0.097 -1025.589)" fill="#fff"/>
      <path id="path12684" d="M17.319,1039.61a.592.592,0,0,0-.291,1.1l3.324,2.08a2.373,2.373,0,0,0,3.167-.616l.508-.7a.592.592,0,1,0-.958-.695l-.508.7a1.173,1.173,0,0,1-1.581.307l-3.324-2.077a.592.592,0,0,0-.337-.095Z" transform="translate(1.864 -1025.131)" fill="#fff" fill-rule="evenodd"/>
      <path id="path12686" d="M16.3,1041.61a.592.592,0,0,0-.247,1.11l2.7,1.542a2.444,2.444,0,0,0,3.181-.683l.524-.722a.592.592,0,1,0-.958-.695l-.524.721a1.244,1.244,0,0,1-1.634.353l-2.7-1.544a.592.592,0,0,0-.339-.08Z" transform="translate(1.681 -1024.768)" fill="#fff" fill-rule="evenodd"/>
      <path id="path12688" d="M13.993,1043.17l-.422,1.106,3.546,1.355a2.053,2.053,0,0,0,2.445-.792l.517-.792-.99-.649-.519.792a.856.856,0,0,1-1.03.334Z" transform="translate(1.287 -1024.484)" fill="#fff" fill-rule="evenodd"/>
      <path id="path12690" d="M7.768,1027.36a.591.591,0,0,0-.471.275l-6.2,9.75a.591.591,0,0,0,.215.836l3.255,1.773a.591.591,0,0,0,.778-.2l6.2-9.524a.591.591,0,0,0-.185-.824l-3.248-2a.588.588,0,0,0-.337-.087Zm.212,1.4,2.237,1.378-5.57,8.557-2.218-1.209Z" transform="translate(-1 -1027.36)" fill="#fff" fill-rule="evenodd"/>
      <path id="path12692" d="M25.343,1027.36a.591.591,0,0,0-.312.087l-3.248,2a.591.591,0,0,0-.185.824l6.2,9.524a.591.591,0,0,0,.778.2l3.253-1.773a.591.591,0,0,0,.217-.836l-6.205-9.75a.591.591,0,0,0-.5-.275Zm-.189,1.4,5.554,8.725-2.218,1.21-5.57-8.557Z" transform="translate(2.73 -1027.36)" fill="#fff" fill-rule="evenodd"/>
    </g>
  </g>
</svg>
