<svg xmlns="http://www.w3.org/2000/svg" width="53" height="53" viewBox="0 0 53 53">
  <g id="Group_179" data-name="Group 179" transform="translate(0.47 0.242)">
    <circle id="Ellipse_47" data-name="Ellipse 47" cx="26.5" cy="26.5" r="26.5" transform="translate(-0.469 -0.242)" fill="#ee8a10"/>
    <g id="_322259_myspace_art-sharing_communication_creative_entertaintment_icon" data-name="322259_myspace_art-sharing_communication_creative_entertaintment_icon" transform="translate(12.623 12.623)">
      <path id="Path_555" data-name="Path 555" d="M18.428,1.107a3.321,3.321,0,1,1-3.321,3.321,3.325,3.325,0,0,1,3.321-3.321m0-1.107a4.428,4.428,0,1,0,4.428,4.428A4.428,4.428,0,0,0,18.428,0Z" transform="translate(1.499)" fill="#fff"/>
      <path id="Path_556" data-name="Path 556" d="M26.016,25.824H12.731a.554.554,0,0,1-.554-.554V20.289H6.089a.554.554,0,0,1-.554-.554V15.861H.554A.554.554,0,0,1,0,15.307V10.645C0,8.368,2.263,6.959,4.36,6.959A4.88,4.88,0,0,1,8.186,8.767a5.668,5.668,0,0,1,2.79-.724,5.835,5.835,0,0,1,4.5,2.108,7.809,7.809,0,0,1,3.768-.932c4.109,0,7.328,2.826,7.328,6.435v9.618A.555.555,0,0,1,26.016,25.824ZM13.285,24.717H25.462V15.653c0-2.987-2.732-5.328-6.221-5.328a6.61,6.61,0,0,0-3.616,1.022.552.552,0,0,1-.764-.161,4.665,4.665,0,0,0-3.887-2.039,4.566,4.566,0,0,0-2.645.835.555.555,0,0,1-.813-.2A3.623,3.623,0,0,0,4.361,8.063c-1.564,0-3.253.986-3.253,2.579v4.112H6.09a.554.554,0,0,1,.554.554v3.875h6.089a.554.554,0,0,1,.554.554v4.982Z" transform="translate(0 0.745)" fill="#fff"/>
      <path id="Path_557" data-name="Path 557" d="M10.321,2.107A2.214,2.214,0,1,1,8.107,4.321a2.216,2.216,0,0,1,2.214-2.214m0-1.107a3.321,3.321,0,1,0,3.321,3.321A3.322,3.322,0,0,0,10.321,1Z" transform="translate(0.749 0.107)" fill="#fff"/>
      <path id="Path_558" data-name="Path 558" d="M4.214,3.107A1.107,1.107,0,1,1,3.107,4.214,1.108,1.108,0,0,1,4.214,3.107M4.214,2A2.214,2.214,0,1,0,6.428,4.214,2.215,2.215,0,0,0,4.214,2Z" transform="translate(0.214 0.214)" fill="#fff"/>
    </g>
  </g>
</svg>
