<svg xmlns="http://www.w3.org/2000/svg" width="86" height="86" viewBox="0 0 86 86">
  <g id="Group_84" data-name="Group 84" transform="translate(-51 -474)">
    <circle id="Ellipse_25" data-name="Ellipse 25" cx="43" cy="43" r="43" transform="translate(51 474)" fill="#0076ff"/>
    <g id="bx-envelope-open" transform="translate(76.8 499.8)">
      <g id="Group_90" data-name="Group 90" transform="translate(0 0)">
        <g id="Group_89" data-name="Group 89">
          <path id="Path_365" data-name="Path 365" d="M49.635,26.61,34.155,16.29a1.72,1.72,0,0,0-1.907,0L16.767,26.61A1.72,1.72,0,0,0,16,28.041v18.92a3.443,3.443,0,0,0,3.44,3.44H46.96a3.443,3.443,0,0,0,3.44-3.44V28.041A1.722,1.722,0,0,0,49.635,26.61ZM33.2,19.789l12.379,8.253L33.2,36.294,20.821,28.041ZM19.44,46.961V31.256l12.805,8.536a1.72,1.72,0,0,0,1.909,0L46.96,31.256l-.005,15.705Z" transform="translate(-16 -16.001)" fill="#fff"/>
        </g>
      </g>
    </g>
  </g>
</svg>
