<svg id="heart" xmlns="http://www.w3.org/2000/svg" width="90.965" height="83.214" viewBox="0 0 90.965 83.214">
  <path id="Path_44" data-name="Path 44" d="M70.36,6.462a25.166,25.166,0,0,0-20.05,9.877A25.164,25.164,0,0,0,30.257,6.462,25.52,25.52,0,0,0,4.829,31.878C4.777,46.961,12.07,55.853,17.932,63l1.257,1.536c6.941,8.558,28.459,23.928,29.37,24.578a3.022,3.022,0,0,0,3.5,0c.911-.65,22.43-16.021,29.37-24.578L82.69,63c5.861-7.148,13.156-16.04,13.1-31.123A25.524,25.524,0,0,0,70.36,6.462Z" transform="translate(-4.829 -6.462)" fill="#4cef3a"/>
</svg>
