<svg xmlns="http://www.w3.org/2000/svg" width="128.532" height="115.957" viewBox="0 0 128.532 115.957">
  <g id="bx-heart" transform="translate(-4.054 -6.074)">
    <path id="Path_168" data-name="Path 168" d="M68.322,16.114a38.122,38.122,0,0,0-52.9,1.289,37.98,37.98,0,0,0,.013,54.208L62.684,118.86a6.437,6.437,0,0,0,10.742.535L121.21,71.611a38.339,38.339,0,0,0-52.883-55.5Zm43.762,10.375A25.24,25.24,0,0,1,112.1,62.5L68.322,106.275,24.547,62.5a25.454,25.454,0,1,1,36-36l3.222,3.222a6.438,6.438,0,0,0,9.112,0L76.1,26.5a25.877,25.877,0,0,1,35.984-.013Z" transform="translate(0)" fill="#081750"/>
  </g>
</svg>
