<svg xmlns="http://www.w3.org/2000/svg" width="52" height="53" viewBox="0 0 52 53">
  <g id="Group_178" data-name="Group 178" transform="translate(0 0.242)">
    <ellipse id="Ellipse_47" data-name="Ellipse 47" cx="26" cy="26.5" rx="26" ry="26.5" transform="translate(0 -0.242)" fill="#ee8a10"/>
    <g id="_172627_user_male_icon" data-name="172627_user_male_icon" transform="translate(11.739 11.541)">
      <rect id="Rectangle_152" data-name="Rectangle 152" width="30.793" height="30.793" fill="none"/>
      <path id="Path_559" data-name="Path 559" d="M22.12,22.047a25.763,25.763,0,0,1-.057-2.642,5.157,5.157,0,0,0,1.427-3.067c.363-.029.934-.381,1.1-1.768a1.291,1.291,0,0,0-.487-1.3c.59-1.763,1.816-7.216-2.267-7.779-.42-.733-1.5-1.1-2.894-1.1-5.594.1-6.268,4.2-5.042,8.883a1.294,1.294,0,0,0-.487,1.3c.168,1.387.739,1.739,1.1,1.768a5.146,5.146,0,0,0,1.461,3.067,25.771,25.771,0,0,1-.057,2.642C14.813,25,7.345,24.173,7,29.873H31.007C30.662,24.173,23.227,25,22.12,22.047Z" transform="translate(-3.041 -1.908)" fill="none" stroke="#fff" stroke-linecap="round" stroke-miterlimit="10" stroke-width="0.7"/>
    </g>
  </g>
</svg>
